<?xml version="1.0" encoding="UTF-8"?>
<svg xmlns="http://www.w3.org/2000/svg" xmlns:xlink="http://www.w3.org/1999/xlink" viewBox="0 0 1200 1200">
  <defs>
    <style>
      .cls-1 {
        clip-path: url(#clippath);
      }

      .cls-2 {
        fill: none;
      }

      .cls-2, .cls-3, .cls-4, .cls-5 {
        stroke-width: 0px;
      }

      .cls-3 {
        fill: #50b588;
      }

      .cls-4 {
        fill: #457f62;
      }

      .cls-5 {
        fill: #fff;
      }
    </style>
    <clipPath id="clippath">
      <rect class="cls-2" x="858.8" y="715.76" width="182.97" height="134.94"/>
    </clipPath>
  </defs>
  <g id="bubble">
    <g>
      <circle class="cls-3" cx="950.29" cy="342" r="137"/>
      <path class="cls-4" d="m1005.77,216.71c40.13,23.89,67.02,67.7,67.02,117.79,0,75.66-61.34,137-137,137-19.75,0-38.52-4.19-55.48-11.71,20.48,12.2,44.41,19.21,69.98,19.21,75.66,0,137-61.34,137-137,0-55.91-33.5-103.99-81.52-125.29Z"/>
    </g>
    <g>
      <path class="cls-5" d="m965.69,263.61c-1.61-2.63-3.09-5.13-4.65-7.57-.31-.49-.91-1.1-1.4-1.12-2.65-.11-5.3-.05-8.04-.05v24.95h8.23v-12.12c2.11,3.22,3.9,5.95,5.8,8.86,1.93-2.96,3.69-5.64,5.44-8.33.14.06.27.12.41.18v11.42h8.29v-24.96c-2.49,0-4.9.05-7.31-.02-1.03-.03-1.64.28-2.17,1.2-1.44,2.5-2.99,4.94-4.6,7.57Zm-69.05,16.21h8.55v-8.14h7.46v8.14h8.32v-24.82h-8.44v8.05h-7.52v-8.05h-8.37v24.82Zm43.77.07v-16.67h7.41v-8.26h-22.98v8.3h7.32v16.63h8.25Zm43.63-.08h20.04v-8.27h-11.74v-16.57h-8.29v24.83Z"/>
      <path class="cls-4" d="m949.91,441c-4.63-1.35-9.26-2.73-13.9-4.03-12.63-3.53-25.27-7.04-37.92-10.48-1.28-.35-1.77-.93-1.88-2.19-.98-11.52-1.97-23.04-3-34.55-1.15-12.9-2.35-25.8-3.5-38.7-1.03-11.58-2.01-23.15-3.04-34.73-.66-7.42-1.36-14.83-2.03-22.24-.07-.72-.08-1.44-.13-2.34h131.56c-.3,3.58-.59,7.12-.9,10.65-.79,8.92-1.6,17.84-2.41,26.77-.93,10.31-1.85,20.62-2.77,30.93-.78,8.68-1.54,17.36-2.31,26.05-.93,10.37-1.86,20.74-2.78,31.11-.2,2.29-.42,4.58-.54,6.88-.07,1.32-.54,1.97-1.92,2.35-16.68,4.55-33.34,9.18-49.99,13.81-.62.17-1.2.48-1.8.73h-.73Zm20.24-71.94c.05.56.1.81.08,1.04-.52,6.27-1.06,12.54-1.57,18.81-.09,1.12-.74,1.51-1.7,1.76-5.26,1.37-10.51,2.79-15.77,4.15-.6.16-1.31.17-1.91.01-5.33-1.37-10.63-2.82-15.96-4.18-1.11-.28-1.51-.77-1.59-1.95-.25-3.85-.67-7.69-1.02-11.51h-16.71c.74,8.39,1.43,16.58,2.24,24.77.06.58.94,1.36,1.58,1.54,10.35,2.96,20.71,5.84,31.09,8.7.77.21,1.7.27,2.47.06,10.48-2.86,20.95-5.78,31.43-8.68.91-.25,1.37-.65,1.46-1.71.56-6.87,1.2-13.74,1.83-20.61.68-7.47,1.39-14.94,2.06-22.41.19-2.14.32-4.29.49-6.64h-60.08c-.51-5.58-1-10.99-1.51-16.48.54-.06.95-.15,1.36-.15,7.15,0,14.3,0,21.45,0,12.91.01,25.81.01,38.72.06,1.2,0,1.73-.32,1.79-1.61.1-2.17.41-4.33.6-6.5.25-2.82.47-5.64.71-8.6h-82.83c0,.68-.04,1.22,0,1.75,1.41,15.37,2.87,30.73,4.18,46.11.16,1.9.79,2.23,2.5,2.23,17.39-.03,34.78.02,52.17.04.77,0,1.55,0,2.45,0Z"/>
      <path class="cls-4" d="m965.69,263.61c1.61-2.63,3.16-5.06,4.6-7.57.53-.92,1.14-1.23,2.17-1.2,2.41.07,4.81.02,7.31.02v24.96h-8.29v-11.42c-.14-.06-.27-.12-.41-.18-1.75,2.68-3.51,5.37-5.44,8.33-1.9-2.9-3.69-5.64-5.8-8.86v12.12h-8.23v-24.95c2.74,0,5.39-.06,8.04.05.49.02,1.09.63,1.4,1.12,1.56,2.44,3.04,4.93,4.65,7.57Z"/>
      <path class="cls-4" d="m896.64,279.82v-24.82h8.37v8.05h7.52v-8.05h8.44v24.82h-8.32v-8.14h-7.46v8.14h-8.55Z"/>
      <path class="cls-4" d="m940.41,279.89h-8.25v-16.63h-7.32v-8.3h22.98v8.26h-7.41v16.67Z"/>
      <path class="cls-4" d="m984.04,279.8v-24.83h8.29v16.57h11.74v8.27h-20.04Z"/>
      <path class="cls-2" d="m970.15,369.06c-.9,0-1.67,0-2.45,0-17.39-.03-34.78-.07-52.17-.04-1.71,0-2.34-.33-2.5-2.23-1.31-15.38-2.77-30.74-4.18-46.11-.05-.53,0-1.06,0-1.75h82.83c-.24,2.96-.46,5.78-.71,8.6-.19,2.17-.5,4.33-.6,6.5-.06,1.29-.59,1.62-1.79,1.61-12.91-.04-25.81-.05-38.72-.06-7.15,0-14.3,0-21.45,0-.41,0-.82.09-1.36.15.5,5.49,1,10.89,1.51,16.48h60.08c-.17,2.35-.3,4.5-.49,6.64-.68,7.47-1.38,14.94-2.06,22.41-.63,6.87-1.27,13.73-1.83,20.61-.09,1.06-.54,1.46-1.46,1.71-10.48,2.89-20.94,5.82-31.43,8.68-.76.21-1.69.15-2.47-.06-10.37-2.85-20.74-5.74-31.09-8.7-.64-.18-1.52-.97-1.58-1.54-.81-8.18-1.5-16.38-2.24-24.77h16.71c.35,3.83.77,7.66,1.02,11.51.08,1.19.48,1.67,1.59,1.95,5.33,1.36,10.63,2.81,15.96,4.18.6.15,1.31.14,1.91-.01,5.26-1.36,10.51-2.78,15.77-4.15.96-.25,1.61-.64,1.7-1.76.5-6.27,1.05-12.54,1.57-18.81.02-.24-.04-.48-.08-1.04Z"/>
    </g>
  </g>
  <g id="controller">
    <g>
      <circle class="cls-3" cx="236.68" cy="171" r="137"/>
      <path class="cls-4" d="m292.16,45.71c40.13,23.89,67.02,67.7,67.02,117.79,0,75.66-61.34,137-137,137-19.75,0-38.52-4.19-55.48-11.71,20.48,12.2,44.41,19.21,69.98,19.21,75.66,0,137-61.34,137-137,0-55.91-33.5-103.99-81.52-125.29Z"/>
    </g>
    <g>
      <path class="cls-4" d="m331.96,173.19l-25.11-41.94c-16.19-17.99-70.17-16.19-70.17-16.19,0,0-53.98-1.8-70.17,16.19l-25.11,41.94c-12.66,21.93-5.15,49.97,16.78,62.63h0c10.35,5.98,23.59,2.43,29.57-7.92l15.05-26.08c.79-1.36,2.24-2.2,3.81-2.2h60.14c1.57,0,3.02.84,3.81,2.2l15.05,26.08c5.98,10.35,19.22,13.9,29.57,7.92h0c21.93-12.66,29.44-40.7,16.78-62.63Z"/>
      <polygon class="cls-3" points="204.87 142.99 196.47 142.99 196.47 134.59 185.59 134.59 185.59 142.99 177.19 142.99 177.19 153.88 185.59 153.88 185.59 162.27 196.47 162.27 196.47 153.88 204.87 153.88 204.87 142.99"/>
      <circle class="cls-3" cx="268.8" cy="182.2" r="11.66"/>
      <circle class="cls-3" cx="202.18" cy="182.2" r="11.66"/>
      <g>
        <g>
          <circle class="cls-3" cx="278.65" cy="160.51" r="5.58"/>
          <circle class="cls-3" cx="278.65" cy="135.69" r="5.58"/>
        </g>
        <g>
          <circle class="cls-3" cx="290.13" cy="147.48" r="5.58"/>
          <circle class="cls-3" cx="267.17" cy="147.48" r="5.58"/>
        </g>
      </g>
      <path class="cls-4" d="m212.09,126.12l-36.93,5.55c-2.19,0-3.97-2.13-3.97-4.75,13.31-8.83,26.86-14.01,40.89-15.24,2.19,0,3.97,2.13,3.97,4.75v4.93c0,2.62-1.78,4.75-3.97,4.75Z"/>
      <path class="cls-4" d="m257.78,126.12l36.93,5.55c2.19,0,3.97-2.13,3.97-4.75-13.31-8.83-26.86-14.01-40.89-15.24-2.19,0-3.97,2.13-3.97,4.75v4.93c0,2.62,1.78,4.75,3.97,4.75Z"/>
    </g>
  </g>
  <g id="css">
    <g>
      <circle class="cls-3" cx="236.68" cy="999.81" r="137"/>
      <path class="cls-4" d="m292.16,874.52c40.13,23.89,67.02,67.7,67.02,117.79,0,75.66-61.34,137-137,137-19.75,0-38.52-4.19-55.48-11.71,20.48,12.2,44.41,19.21,69.98,19.21,75.66,0,137-61.34,137-137,0-55.91-33.5-103.99-81.52-125.29Z"/>
    </g>
    <g>
      <path class="cls-4" d="m170.9,944.48c0-.37,0-.73,0-1.1.36,0,.73,0,1.09,0,43.08,0,86.17,0,129.25,0,1.06,0,1.1.05.98,1.08,0,.02,0,.04,0,.05-.2,2.25-.41,4.51-.61,6.76-.27,3.04-.53,6.07-.81,9.11-.28,3.11-.56,6.21-.84,9.32-.27,3.03-.54,6.07-.81,9.11-.28,3.14-.56,6.29-.84,9.43-.23,2.6-.46,5.2-.7,7.8-.28,3.11-.56,6.21-.83,9.32-.24,2.64-.47,5.27-.7,7.91-.27,3.05-.55,6.11-.83,9.16-.24,2.67-.47,5.34-.71,8.02-.27,3.05-.55,6.11-.83,9.16-.24,2.67-.46,5.34-.7,8.02-.27,3.05-.56,6.1-.83,9.16-.27,3.07-.53,6.14-.81,9.22-.31,3.49-.64,6.98-.94,10.47-.1,1.17-.08,1.17-1.18,1.47-5.31,1.47-10.63,2.94-15.94,4.41-12.05,3.34-24.09,6.69-36.15,10.02-.41.11-.91.11-1.33,0-3.89-1.05-7.78-2.14-11.66-3.22-13.56-3.77-27.12-7.53-40.68-11.29-.46-.13-.73-.32-.77-.83-.21-2.56-.45-5.13-.67-7.69-.24-2.67-.47-5.34-.7-8.02-.28-3.13-.56-6.25-.84-9.38-.23-2.62-.47-5.23-.7-7.85-.28-3.11-.56-6.22-.83-9.32-.24-2.64-.47-5.27-.7-7.91-.24-2.67-.48-5.34-.72-8.01-.24-2.65-.47-5.31-.7-7.96-.27-3.07-.55-6.14-.83-9.21-.24-2.65-.47-5.31-.7-7.96-.28-3.13-.56-6.25-.84-9.38-.23-2.62-.46-5.23-.7-7.85-.28-3.09-.56-6.18-.83-9.27-.27-3.04-.54-6.07-.81-9.11-.28-3.14-.56-6.29-.84-9.43-.13-1.4-.28-2.79-.42-4.19Zm65.68,26.43h0c-13.36,0-26.73,0-40.09,0-1.1,0-1.11.04-1,1.16.3,3.07.57,6.14.85,9.21.16,1.8.34,3.6.49,5.4.04.45.23.67.7.61.14-.02.29,0,.44,0,20.19,0,40.38,0,60.57,0,.22,0,.44,0,.66,0,.38-.01.52.14.48.53-.15,1.56-.27,3.13-.41,4.69-.31,3.54-.64,7.09-.94,10.63-.09,1.05-.08,1.06-1.11,1.06-14.2,0-28.41,0-42.61,0-5.15,0-10.3,0-15.44,0-.72,0-.79.07-.73.79.11,1.33.23,2.65.35,3.98.32,3.53.64,7.05.95,10.58.09,1.01.08,1.03,1.09,1.03,18.24,0,36.47,0,54.71,0,.22,0,.44.01.66,0,.5-.03.61.21.57.67-.25,2.58-.48,5.16-.71,7.74-.36,4.05-.74,8.1-1.07,12.16-.05.65-.3.9-.9,1.06-5.68,1.51-11.35,3.06-17.03,4.57-.37.1-.8.09-1.17,0-2.95-.77-5.89-1.58-8.83-2.37-2.75-.74-5.5-1.49-8.25-2.22-.47-.12-.71-.34-.73-.86-.02-.73-.13-1.45-.19-2.18-.29-3.18-.58-6.36-.85-9.54-.04-.51-.23-.69-.74-.69-4.98.01-9.97,0-14.95,0-.67,0-.76.11-.7.77.1,1.04.2,2.07.3,3.11.31,3.47.61,6.94.92,10.41.32,3.56.65,7.12.95,10.69.04.53.24.77.75.9,2.47.66,4.93,1.36,7.39,2.04,8.32,2.31,16.63,4.63,24.96,6.92.41.11.91.11,1.32,0,7.62-2.09,15.24-4.2,22.85-6.31,3.18-.88,6.37-1.77,9.55-2.65.33-.09.59-.19.63-.62.24-2.78.5-5.56.75-8.34.38-4.33.75-8.65,1.14-12.98.42-4.69.85-9.38,1.27-14.07.42-4.69.82-9.38,1.24-14.07.53-5.92,1.07-11.85,1.6-17.77.46-5.13.9-10.25,1.36-15.38.06-.68.06-.7-.6-.7-13.47,0-26.95,0-40.42,0Z"/>
      <path class="cls-2" d="m170.9,944.48c.14,1.4.29,2.79.42,4.19.29,3.14.57,6.29.84,9.43.27,3.04.54,6.07.81,9.11.28,3.09.55,6.18.83,9.27.23,2.62.47,5.23.7,7.85.28,3.13.56,6.25.84,9.38.24,2.65.46,5.31.7,7.96.27,3.07.55,6.14.83,9.21.24,2.65.47,5.31.7,7.96.24,2.67.48,5.34.72,8.01.24,2.64.47,5.27.7,7.91.28,3.11.56,6.22.83,9.32.23,2.62.47,5.23.7,7.85.28,3.13.56,6.25.84,9.38.24,2.67.47,5.34.7,8.02.23,2.56.46,5.12.67,7.69.04.51.31.71.77.83,13.56,3.76,27.12,7.52,40.68,11.29,3.89,1.08,7.77,2.17,11.66,3.22.42.11.92.12,1.33,0,12.05-3.33,24.1-6.67,36.15-10.02,5.31-1.47,10.62-2.94,15.94-4.41,1.1-.3,1.08-.3,1.18-1.47.3-3.49.63-6.98.94-10.47.27-3.07.53-6.14.81-9.22.27-3.05.56-6.11.83-9.16.24-2.67.47-5.34.7-8.02.27-3.05.55-6.11.83-9.16.24-2.67.47-5.34.71-8.02.27-3.05.55-6.11.83-9.16.24-2.64.47-5.27.7-7.91.28-3.11.56-6.21.83-9.32.23-2.6.46-5.2.7-7.8.28-3.14.56-6.29.84-9.43.27-3.04.54-6.07.81-9.11.28-3.11.56-6.21.84-9.32.27-3.03.53-6.07.81-9.11.2-2.25.41-4.51.61-6.76,0-.02,0-.04,0-.05.12-1.03.08-1.08-.98-1.08-43.08,0-86.17,0-129.25,0-.36,0-.73,0-1.09,0v-36.38c10.3,0,20.59,0,30.89,0-.01.25-.04.51-.04.76,0,7.8,0,15.59,0,23.39,0,.94,0,.94.93.94,5,0,10,0,15.01,0,1.15,0,2.3,0,3.45,0,.41,0,.64-.11.64-.59-.02-2.45-.01-4.89,0-7.34,0-.44-.18-.57-.59-.56-.77.02-1.53,0-2.3,0-2.67,0-5.33,0-8,0-.32,0-.64.01-.64-.45,0-2.41,0-4.82,0-7.23,0-.34.17-.5.5-.5.29,0,.58,0,.88,0,3.1,0,6.21,0,9.31,0,.83,0,.84-.01.84-.82,0-1.35,0-2.7,0-4.05,0-1.19-.03-2.37-.04-3.56,1.31,0,2.63,0,3.94,0-.01.15-.03.29-.03.44,0,.18,0,.37,0,.55,0,4.71,0,9.42,0,14.13,0,1.41-.13,1.24,1.27,1.25,3.16,0,6.32,0,9.47,0,.16,0,.34-.02.49.01.12.03.29.12.33.22.28.64-.02,1.11-.7,1.11-3.4,0-6.79,0-10.19,0-.53,0-.7.18-.69.7.02,2.08,0,4.16,0,6.24,0,.78.02.81.79.81,6.17,0,12.34,0,18.51,0,.75,0,.79-.04.79-.76,0-5.09,0-10.19,0-15.28,0-.75-.03-.78-.82-.78-3.36,0-6.72,0-10.08,0-.66,0-.7-.07-.7-.72,0-.56.34-.55.73-.55,3.36,0,6.72,0,10.08,0,.73,0,.79-.06.8-.77,0-2.19,0-4.38-.01-6.57,1.28,0,2.56,0,3.83,0,0,.27-.03.55-.03.82,0,4.82,0,9.64,0,14.46,0,.05,0,.11,0,.16q0,.92.95.92c3.27,0,6.53,0,9.8,0,.16,0,.34-.02.49.02.12.03.28.12.33.22.28.64-.02,1.11-.71,1.11-3.38,0-6.75,0-10.13,0-.53,0-.75.14-.74.71.03,2.12.02,4.24,0,6.35,0,.52.18.7.7.7,6.24-.01,12.48-.01,18.72,0,.53,0,.69-.2.69-.71-.01-5.15-.01-10.3,0-15.44,0-.53-.19-.69-.71-.69-3.3.02-6.61,0-9.91,0-.16,0-.33-.01-.49,0-.44.03-.51-.23-.5-.59,0-.34-.02-.69.48-.68.18,0,.36,0,.55,0,3.29,0,6.57,0,9.86,0,.39,0,.73,0,.73-.56-.02-2.26-.02-4.53-.03-6.79,10.95,0,21.91,0,32.86,0v185.61c-43.85,0-87.71,0-131.56,0,0-49.38,0-98.76,0-148.14Z"/>
      <path class="cls-4" d="m269.59,907.01c0,2.26,0,4.53.03,6.79,0,.55-.34.56-.73.56-3.29,0-6.57,0-9.86,0-.18,0-.37,0-.55,0-.5,0-.47.34-.48.68-.01.36.06.62.5.59.16-.01.33,0,.49,0,3.3,0,6.61,0,9.91,0,.52,0,.71.16.71.69-.01,5.15-.01,10.3,0,15.44,0,.51-.16.71-.69.71-6.24-.01-12.48-.01-18.72,0-.52,0-.71-.18-.7-.7.02-2.12.02-4.24,0-6.35,0-.57.21-.71.74-.71,3.38.02,6.75,0,10.13,0,.68,0,.99-.47.71-1.11-.05-.1-.21-.19-.33-.22-.15-.04-.33-.02-.49-.02-3.27,0-6.53,0-9.8,0q-.95,0-.95-.92c0-.05,0-.11,0-.16,0-4.82,0-9.64,0-14.46,0-.27.02-.55.03-.82,6.68,0,13.36,0,20.05,0Z"/>
      <path class="cls-4" d="m245.71,907.01c0,2.19.01,4.38.01,6.57,0,.71-.06.77-.8.77-3.36,0-6.72,0-10.08,0-.39,0-.73,0-.73.55,0,.65.05.72.7.72,3.36,0,6.72,0,10.08,0,.78,0,.82.03.82.78,0,5.09,0,10.19,0,15.28,0,.72-.04.76-.79.76-6.17,0-12.34,0-18.51,0-.77,0-.79-.02-.79-.81,0-2.08.01-4.16,0-6.24,0-.52.16-.7.69-.7,3.4.02,6.79,0,10.19,0,.68,0,.99-.47.7-1.11-.05-.1-.21-.19-.33-.22-.16-.04-.33-.01-.49-.01-3.16,0-6.32,0-9.47,0-1.4,0-1.27.17-1.27-1.25,0-4.71,0-9.42,0-14.13,0-.18,0-.37,0-.55,0-.15.02-.29.03-.44,6.68,0,13.36,0,20.05,0Z"/>
      <path class="cls-4" d="m221.72,907.01c.01,1.19.04,2.37.04,3.56,0,1.35,0,2.7,0,4.05,0,.8-.01.81-.84.82-3.1,0-6.21,0-9.31,0-.29,0-.58,0-.88,0-.34,0-.5.16-.5.5,0,2.41,0,4.82,0,7.23,0,.47.32.45.64.45,2.67,0,5.33,0,8,0,.77,0,1.53.01,2.3,0,.41,0,.59.12.59.56-.01,2.45-.01,4.89,0,7.34,0,.48-.23.59-.64.59-1.15,0-2.3,0-3.45,0-5,0-10,0-15.01,0-.93,0-.93,0-.93-.94,0-7.8,0-15.59,0-23.39,0-.25.02-.51.04-.76,6.65,0,13.29,0,19.94,0Z"/>
      <path class="cls-2" d="m236.58,970.91c13.47,0,26.95,0,40.42,0,.66,0,.66.02.6.7-.45,5.13-.9,10.25-1.36,15.38-.53,5.92-1.07,11.85-1.6,17.77-.42,4.69-.82,9.38-1.24,14.07-.42,4.69-.85,9.38-1.27,14.07-.39,4.33-.75,8.65-1.14,12.98-.25,2.78-.51,5.56-.75,8.34-.04.43-.29.53-.63.62-3.18.88-6.37,1.77-9.55,2.65-7.62,2.11-15.23,4.22-22.85,6.31-.41.11-.91.12-1.32,0-8.32-2.29-16.64-4.61-24.96-6.92-2.46-.68-4.92-1.38-7.39-2.04-.5-.14-.7-.38-.75-.9-.3-3.56-.63-7.12-.95-10.69-.31-3.47-.61-6.94-.92-10.41-.09-1.04-.19-2.07-.3-3.11-.06-.66.03-.77.7-.77,4.98,0,9.97,0,14.95,0,.51,0,.7.17.74.69.27,3.18.56,6.36.85,9.54.07.73.17,1.45.19,2.18.02.52.26.73.73.86,2.75.73,5.5,1.48,8.25,2.22,2.94.79,5.88,1.6,8.83,2.37.37.1.81.11,1.17,0,5.68-1.51,11.35-3.06,17.03-4.57.6-.16.85-.41.9-1.06.33-4.06.71-8.11,1.07-12.16.23-2.58.46-5.16.71-7.74.04-.46-.06-.71-.57-.67-.22.01-.44,0-.66,0-18.24,0-36.47,0-54.71,0-1.01,0-1-.02-1.09-1.03-.31-3.53-.63-7.05-.95-10.58-.12-1.33-.24-2.65-.35-3.98-.06-.71.01-.79.73-.79,5.15,0,10.3,0,15.44,0,14.2,0,28.41,0,42.61,0,1.04,0,1.02-.01,1.11-1.06.3-3.55.63-7.09.94-10.63.14-1.56.26-3.13.41-4.69.04-.39-.11-.54-.48-.53-.22,0-.44,0-.66,0-20.19,0-40.38,0-60.57,0-.15,0-.29-.02-.44,0-.47.06-.66-.16-.7-.61-.15-1.8-.33-3.6-.49-5.4-.28-3.07-.55-6.14-.85-9.21-.11-1.12-.1-1.16,1-1.16,13.36,0,26.73,0,40.09,0h0Z"/>
    </g>
  </g>
  <g id="javascript">
    <g>
      <circle class="cls-3" cx="236.68" cy="605" r="137"/>
      <path class="cls-4" d="m292.16,479.71c40.13,23.89,67.02,67.7,67.02,117.79,0,75.66-61.34,137-137,137-19.75,0-38.52-4.19-55.48-11.71,20.48,12.2,44.41,19.21,69.98,19.21,75.66,0,137-61.34,137-137,0-55.91-33.5-103.99-81.52-125.29Z"/>
    </g>
    <g>
      <path class="cls-4" d="m313.82,688h-154.29v-154.29h154.29v154.29Zm-63.52-30.12c5.61,10.68,20.45,16.68,32.52,13.46,7.92-2.12,12.98-7.15,14.4-15.25,1.41-8.06-1.29-14.72-8.2-19.27-3.12-2.06-6.63-3.53-9.96-5.27-3.03-1.58-6.25-2.88-9.03-4.81-3.23-2.25-3.06-6.62.04-9.09,2.75-2.2,5.78-2.12,8.64-.4,1.92,1.16,3.56,2.8,5.53,4.38,3.12-1.99,6.34-4.05,9.9-6.33-1.8-2.16-3.06-4.08-4.71-5.59-6.76-6.18-14.53-8.04-23.1-4.43-7.09,2.98-11.28,8.3-11.64,16.27-.44,9.7,4.17,16.05,12.9,19.71,3.47,1.46,7.02,2.74,10.41,4.37,4.26,2.04,6.13,5,5.53,8.14-.56,2.95-3.8,5.29-8.12,5.74-1.11.12-2.44.22-3.36-.26-3.92-2.06-7.72-4.34-12.21-6.9-2.47,1.44-5.9,3.43-9.52,5.54Zm-49.06,2.42c3.99,3.39,7.05,6.9,10.88,9.09,13.17,7.56,29.03-1.19,30.03-16.32.22-3.3.1-6.62.1-9.94,0-11.54.04-23.08-.07-34.62-.01-1.08-.9-3.04-1.51-3.09-3.69-.29-7.42-.14-11.4-.14,0,1.79,0,3.03,0,4.28,0,13.83-.05,27.65.03,41.48.02,3.54-.96,6.45-4.4,7.74-3.42,1.28-6.53.26-9.03-2.39-1.07-1.13-1.99-2.4-3.09-3.75-3.59,2.38-6.99,4.64-11.55,7.67Z"/>
      <path class="cls-2" d="m250.31,657.88c3.62-2.11,7.05-4.1,9.52-5.54,4.49,2.57,8.29,4.84,12.21,6.9.92.48,2.25.37,3.36.26,4.33-.45,7.56-2.79,8.12-5.74.6-3.15-1.26-6.1-5.53-8.14-3.39-1.62-6.94-2.91-10.41-4.37-8.73-3.66-13.34-10-12.9-19.71.36-7.97,4.55-13.29,11.64-16.27,8.57-3.61,16.35-1.74,23.1,4.43,1.65,1.51,2.92,3.43,4.71,5.59-3.57,2.28-6.78,4.33-9.9,6.33-1.97-1.59-3.6-3.22-5.53-4.38-2.86-1.73-5.89-1.8-8.64.4-3.1,2.47-3.27,6.84-.04,9.09,2.78,1.93,6,3.23,9.03,4.81,3.33,1.74,6.83,3.22,9.96,5.27,6.91,4.55,9.61,11.21,8.2,19.27-1.42,8.11-6.47,13.14-14.4,15.25-12.07,3.22-26.91-2.78-32.52-13.46Z"/>
      <path class="cls-2" d="m201.25,660.29c4.56-3.03,7.96-5.29,11.55-7.67,1.1,1.35,2.02,2.62,3.09,3.75,2.5,2.65,5.61,3.66,9.03,2.39,3.45-1.29,4.42-4.2,4.4-7.74-.08-13.83-.03-27.65-.03-41.48,0-1.24,0-2.49,0-4.28,3.98,0,7.7-.14,11.4.14.6.05,1.5,2.01,1.51,3.09.11,11.54.08,23.08.07,34.62,0,3.31.11,6.64-.1,9.94-1,15.13-16.86,23.87-30.03,16.32-3.82-2.19-6.89-5.7-10.88-9.09Z"/>
    </g>
  </g>
  <g id="adobeCC">
    <g>
      <circle class="cls-3" cx="950.29" cy="783.24" r="137"/>
      <path class="cls-4" d="m1005.77,657.95c40.13,23.89,67.02,67.7,67.02,117.79,0,75.66-61.34,137-137,137-19.75,0-38.52-4.19-55.48-11.71,20.48,12.2,44.41,19.21,69.98,19.21,75.66,0,137-61.34,137-137,0-55.91-33.5-103.99-81.52-125.29Z"/>
    </g>
    <g class="cls-1">
      <path class="cls-4" d="m1041.77,780.22v6.02c-.06.33-.13.65-.17.97-.31,2.62-.51,5.26-.94,7.86-1.41,8.45-4.45,16.31-8.96,23.57-6.86,11.03-16.14,19.44-27.79,25.18-6.73,3.33-13.98,5.47-21.44,6.33-1.66.19-3.31.36-4.97.55h-64.28c-.32-.06-.65-.16-.97-.18-6.48-.41-12.72-1.89-18.66-4.49-12.94-5.66-22.59-14.84-28.9-27.47-2.79-5.57-4.6-11.58-5.34-17.77-.18-1.5-.36-3.01-.54-4.51v-5.84c.06-.32.16-.65.18-.97.34-5.62,1.49-11.07,3.52-16.31,5.46-14.1,14.97-24.56,28.5-31.33,7.02-3.51,14.49-5.36,22.32-5.77,3.83-.2,7.66.02,11.46.53.34.05.84-.11,1.08-.35,5.47-5.59,11.71-10.13,18.74-13.58,6.82-3.34,13.99-5.49,21.54-6.35,1.78-.2,3.56-.37,5.34-.55h5.48c.36.06.72.12,1.08.16,2.72.32,5.45.52,8.13.97,8.39,1.41,16.2,4.42,23.43,8.89,11.08,6.86,19.53,16.15,25.3,27.84,3.34,6.73,5.48,13.99,6.33,21.45.2,1.72.36,3.44.55,5.15m-102.3-38.98c.11.14.14.21.18.23,3.76,1.85,7.36,4.03,10.75,6.5.21.16.74.09,1-.07,9.32-5.9,19.42-7.94,30.27-6.02,10.63,1.89,19.29,7.2,25.9,15.68,7.49,9.6,10.34,20.46,8.27,32.54-1.39,8.1-4.63,15.36-10.14,21.45-10.06,11.09-22.66,15.68-37.49,13.74-9.13-1.2-17.01-5.13-23.53-11.73-8.37-8.46-16.8-16.86-25.19-25.29-1.12-1.12-2.36-2.03-3.98-2.22-2.81-.34-5.37,1.06-6.58,3.59-1.08,2.26-.94,4.8,1.41,7.12,9.36,9.19,18.64,18.46,27.98,27.66,1.6,1.58,3.32,3.04,5.13,4.37,6.83,4.96,14.53,7.7,22.87,8.81,6.54.86,13.04.68,19.48-.77,12.29-2.76,22.47-9.03,30.49-18.71,6.62-8,10.63-17.19,12.02-27.51.81-5.88.64-11.86-.5-17.69-1.86-9.53-5.89-18.06-12.35-25.32-12.33-13.84-27.84-20.02-46.3-18.64-7.1.53-13.82,2.62-20.14,5.92-3.41,1.77-6.62,3.91-9.57,6.37m-4.52,96.64c-.25-.24-.51-.47-.76-.71-3.83-3.61-7.67-7.2-11.46-10.86-.73-.71-1.41-1.05-2.44-1.03-3.83.09-7.66.11-11.44-.74-18.76-4.24-29.66-24.64-22.74-42.59,5.45-14.15,20.55-22.77,35.44-20.12,6.67,1.19,12.53,4.02,17.34,8.98,5.86,6.05,11.9,11.93,17.83,17.93,1.35,1.36,2.9,1.99,4.77,1.72,2.42-.34,4.34-1.5,5.21-3.86.86-2.33.44-4.54-1.32-6.33-6.22-6.3-12.29-12.76-18.77-18.8-12.55-11.71-27.36-15.19-43.73-10.21-22.02,6.69-34.91,29.43-29.88,51.87,4.59,20.44,22.47,34.79,43.39,34.81,5.84,0,11.68,0,17.53,0,.29,0,.58-.03,1.02-.05"/>
    </g>
  </g>
</svg>