<?xml version="1.0" encoding="UTF-8"?>
<svg id="Layer_1" data-name="Layer 1" xmlns="http://www.w3.org/2000/svg" viewBox="0 0 50 50.08">
  <defs>
    <style>
      .cls-1 {
        fill: #95d5b2;
      }

      .cls-1, .cls-2 {
        stroke-width: 0px;
      }

      .cls-2 {
        fill: #fff;
      }
    </style>
  </defs>
  <circle class="cls-2" cx="25" cy="25.08" r="25"/>
  <g>
    <path class="cls-1" d="m.02,26.31c.03.19.06.38.08.57.16,2.15.57,4.24,1.28,6.28,1.24,3.59,3.26,6.71,5.9,9.42,2.72,2.8,5.97,4.78,9.66,6.04,1.11.38,1.88-.19,1.88-1.36,0-.63-.02-1.27-.02-1.9,0-.83,0-1.65,0-2.36-1.25,0-2.44.04-3.61-.01-1.36-.06-2.62-.42-3.67-1.36-.65-.59-.98-1.36-1.32-2.13-.6-1.35-1.35-2.59-2.69-3.36-.29-.17-.51-.49-.74-.76-.22-.28-.12-.55.21-.56.54-.03,1.12-.07,1.62.08,1.37.4,2.37,1.3,3.09,2.53.47.8,1.06,1.48,1.85,1.97,1.51.93,3.08.65,4.66.22.48-.13.75-.37.77-.89.01-.25.1-.52.21-.74.34-.67.72-1.32,1.08-1.98-.01,0-.09-.01-.16-.03-1.42-.32-2.89-.52-4.25-.99-2.3-.8-4.21-2.18-5.33-4.44-.8-1.6-1.22-3.31-1.39-5.09-.29-3.04.19-5.86,2.28-8.25.1-.11.15-.36.1-.51-.62-1.77-.53-3.54,0-5.32.33-1.14.54-1.28,1.71-1.03.03,0,.06.02.09.03,1.82.48,3.5,1.29,5.08,2.29.2.13.53.19.76.14,3.89-.98,7.78-.98,11.67,0,.23.06.54-.01.76-.12,1.25-.62,2.47-1.3,3.73-1.9.76-.36,1.58-.6,2.45-.48.15.02.35.14.4.26.76,1.98,1.04,3.99.32,6.04-.1.28-.06.46.13.69,1.09,1.25,1.8,2.69,2.11,4.32.28,1.47.23,2.95.06,4.42-.23,1.94-.75,3.8-1.87,5.43-1.54,2.23-3.82,3.36-6.37,4.02-.96.25-1.95.37-2.86.54.34.55.72,1.08.99,1.66.47.99.53,2.07.53,3.15,0,2.16,0,4.33,0,6.49,0,1.16.75,1.69,1.85,1.31,2.4-.82,4.66-1.92,6.68-3.46,5.55-4.24,9.02-9.76,9.99-16.74.49-3.54.27-7.04-.75-10.47-1.59-5.34-4.62-9.71-9.1-13.03-3.68-2.74-7.8-4.35-12.38-4.78-3.68-.34-7.28,0-10.76,1.25-5.13,1.83-9.27,4.98-12.36,9.48-2.04,2.97-3.41,6.23-3.99,9.8-.15.91-.25,1.83-.38,2.74"/>
    <path class="cls-1" d="m.02,23.38c.13-.91.23-1.83.38-2.74.57-3.57,1.94-6.83,3.99-9.8C7.47,6.35,11.62,3.2,16.74,1.37,20.23.13,23.83-.22,27.5.13c4.58.43,8.7,2.05,12.38,4.78,4.48,3.33,7.5,7.69,9.1,13.03,1.02,3.43,1.24,6.94.75,10.47-.97,6.98-4.44,12.5-9.99,16.74-2.01,1.54-4.28,2.64-6.68,3.46-1.1.38-1.85-.15-1.85-1.31,0-2.16,0-4.33,0-6.49,0-1.08-.06-2.16-.53-3.15-.27-.58-.66-1.11-.99-1.66.91-.17,1.9-.3,2.86-.54,2.54-.66,4.82-1.79,6.37-4.02,1.12-1.62,1.64-3.49,1.87-5.43.17-1.47.22-2.95-.06-4.42-.31-1.63-1.02-3.08-2.11-4.32-.2-.23-.23-.41-.13-.69.72-2.05.44-4.07-.32-6.04-.05-.12-.25-.24-.4-.26-.87-.12-1.69.12-2.45.48-1.26.59-2.48,1.28-3.73,1.9-.22.11-.53.18-.76.12-3.89-.97-7.78-.97-11.67,0-.23.06-.56,0-.76-.14-1.59-1.01-3.26-1.82-5.08-2.29-.03,0-.06-.02-.09-.03-1.17-.25-1.37-.11-1.71,1.03-.52,1.77-.61,3.54,0,5.32.05.14,0,.39-.1.51-2.1,2.38-2.57,5.2-2.28,8.25.17,1.78.59,3.49,1.39,5.09,1.13,2.26,3.03,3.64,5.33,4.44,1.37.47,2.83.67,4.25.99.07.02.15.03.16.03-.36.66-.74,1.31-1.08,1.98-.12.23-.2.49-.21.74-.02.53-.3.76-.77.89-1.58.43-3.15.7-4.66-.22-.79-.49-1.39-1.17-1.85-1.97-.72-1.23-1.73-2.12-3.09-2.53-.51-.15-1.08-.11-1.62-.08-.33.02-.44.29-.21.56.22.28.44.59.74.76,1.34.78,2.09,2.01,2.69,3.36.34.77.67,1.55,1.32,2.13,1.05.94,2.32,1.3,3.67,1.36,1.18.05,2.36.01,3.61.01,0,.71,0,1.53,0,2.36,0,.63.02,1.27.02,1.9,0,1.17-.77,1.74-1.88,1.36-3.69-1.26-6.94-3.24-9.66-6.04-2.64-2.71-4.66-5.83-5.9-9.42-.71-2.04-1.12-4.13-1.28-6.28-.01-.19-.05-.38-.08-.57,0-.98,0-1.95,0-2.93Z"/>
  </g>
</svg>