<?xml version="1.0" encoding="utf-8"?>
<!-- Generator: Adobe Illustrator 28.0.0, SVG Export Plug-In . SVG Version: 6.00 Build 0)  -->
<svg version="1.1" id="Layer_1" xmlns="http://www.w3.org/2000/svg" xmlns:xlink="http://www.w3.org/1999/xlink" x="0px" y="0px"
	 viewBox="0 0 50 50.1" style="enable-background:new 0 0 50 50.1;" xml:space="preserve">
<style type="text/css">
	.st0{fill:#FFFFFF;}
	.st1{fill:#1B4332;}
</style>
<circle class="st0" cx="25" cy="25.1" r="25"/>
<g>
	<path class="st1" d="M0,26.3c0,0.2,0.1,0.4,0.1,0.6c0.2,2.1,0.6,4.2,1.3,6.3c1.2,3.6,3.3,6.7,5.9,9.4c2.7,2.8,6,4.8,9.7,6
		c1.1,0.4,1.9-0.2,1.9-1.4c0-0.6,0-1.3,0-1.9c0-0.8,0-1.7,0-2.4c-1.2,0-2.4,0-3.6,0c-1.4-0.1-2.6-0.4-3.7-1.4
		c-0.6-0.6-1-1.4-1.3-2.1c-0.6-1.3-1.4-2.6-2.7-3.4C7.2,36,7,35.6,6.8,35.4c-0.2-0.3-0.1-0.5,0.2-0.6c0.5,0,1.1-0.1,1.6,0.1
		c1.4,0.4,2.4,1.3,3.1,2.5c0.5,0.8,1.1,1.5,1.9,2c1.5,0.9,3.1,0.7,4.7,0.2c0.5-0.1,0.8-0.4,0.8-0.9c0-0.2,0.1-0.5,0.2-0.7
		c0.3-0.7,0.7-1.3,1.1-2c0,0-0.1,0-0.2,0c-1.4-0.3-2.9-0.5-4.2-1c-2.3-0.8-4.2-2.2-5.3-4.4c-0.8-1.6-1.2-3.3-1.4-5.1
		c-0.3-3,0.2-5.9,2.3-8.2c0.1-0.1,0.1-0.4,0.1-0.5c-0.6-1.8-0.5-3.5,0-5.3c0.3-1.1,0.5-1.3,1.7-1c0,0,0.1,0,0.1,0
		c1.8,0.5,3.5,1.3,5.1,2.3c0.2,0.1,0.5,0.2,0.8,0.1c3.9-1,7.8-1,11.7,0c0.2,0.1,0.5,0,0.8-0.1c1.3-0.6,2.5-1.3,3.7-1.9
		c0.8-0.4,1.6-0.6,2.5-0.5c0.2,0,0.3,0.1,0.4,0.3c0.8,2,1,4,0.3,6c-0.1,0.3-0.1,0.5,0.1,0.7c1.1,1.2,1.8,2.7,2.1,4.3
		c0.3,1.5,0.2,3,0.1,4.4c-0.2,1.9-0.8,3.8-1.9,5.4c-1.5,2.2-3.8,3.4-6.4,4c-1,0.2-2,0.4-2.9,0.5c0.3,0.5,0.7,1.1,1,1.7
		c0.5,1,0.5,2.1,0.5,3.2c0,2.2,0,4.3,0,6.5c0,1.2,0.8,1.7,1.8,1.3c2.4-0.8,4.7-1.9,6.7-3.5c5.5-4.2,9-9.8,10-16.7
		c0.5-3.5,0.3-7-0.8-10.5c-1.6-5.3-4.6-9.7-9.1-13c-3.7-2.7-7.8-4.3-12.4-4.8c-3.7-0.3-7.3,0-10.8,1.2c-5.1,1.8-9.3,5-12.4,9.5
		c-2,3-3.4,6.2-4,9.8c-0.2,0.9-0.2,1.8-0.4,2.7"/>
	<path class="st1" d="M0,23.4c0.1-0.9,0.2-1.8,0.4-2.7c0.6-3.6,1.9-6.8,4-9.8c3.1-4.5,7.2-7.6,12.4-9.5c3.5-1.2,7.1-1.6,10.8-1.2
		c4.6,0.4,8.7,2,12.4,4.8c4.5,3.3,7.5,7.7,9.1,13c1,3.4,1.2,6.9,0.8,10.5c-1,7-4.4,12.5-10,16.7c-2,1.5-4.3,2.6-6.7,3.5
		c-1.1,0.4-1.9-0.2-1.9-1.3c0-2.2,0-4.3,0-6.5c0-1.1-0.1-2.2-0.5-3.2c-0.3-0.6-0.7-1.1-1-1.7c0.9-0.2,1.9-0.3,2.9-0.5
		c2.5-0.7,4.8-1.8,6.4-4c1.1-1.6,1.6-3.5,1.9-5.4c0.2-1.5,0.2-3-0.1-4.4c-0.3-1.6-1-3.1-2.1-4.3c-0.2-0.2-0.2-0.4-0.1-0.7
		c0.7-2.1,0.4-4.1-0.3-6c0-0.1-0.2-0.2-0.4-0.3c-0.9-0.1-1.7,0.1-2.5,0.5c-1.3,0.6-2.5,1.3-3.7,1.9c-0.2,0.1-0.5,0.2-0.8,0.1
		c-3.9-1-7.8-1-11.7,0c-0.2,0.1-0.6,0-0.8-0.1c-1.6-1-3.3-1.8-5.1-2.3c0,0-0.1,0-0.1,0c-1.2-0.2-1.4-0.1-1.7,1
		c-0.5,1.8-0.6,3.5,0,5.3c0.1,0.1,0,0.4-0.1,0.5c-2.1,2.4-2.6,5.2-2.3,8.2c0.2,1.8,0.6,3.5,1.4,5.1c1.1,2.3,3,3.6,5.3,4.4
		c1.4,0.5,2.8,0.7,4.3,1c0.1,0,0.1,0,0.2,0c-0.4,0.7-0.7,1.3-1.1,2c-0.1,0.2-0.2,0.5-0.2,0.7c0,0.5-0.3,0.8-0.8,0.9
		c-1.6,0.4-3.1,0.7-4.7-0.2c-0.8-0.5-1.4-1.2-1.9-2c-0.7-1.2-1.7-2.1-3.1-2.5c-0.5-0.2-1.1-0.1-1.6-0.1c-0.3,0-0.4,0.3-0.2,0.6
		c0.2,0.3,0.4,0.6,0.7,0.8c1.3,0.8,2.1,2,2.7,3.4c0.3,0.8,0.7,1.5,1.3,2.1c1.1,0.9,2.3,1.3,3.7,1.4c1.2,0,2.4,0,3.6,0
		c0,0.7,0,1.5,0,2.4c0,0.6,0,1.3,0,1.9c0,1.2-0.8,1.7-1.9,1.4c-3.7-1.3-6.9-3.2-9.7-6c-2.6-2.7-4.7-5.8-5.9-9.4
		c-0.7-2-1.1-4.1-1.3-6.3c0-0.2-0.1-0.4-0.1-0.6C0,25.3,0,24.3,0,23.4L0,23.4z"/>
</g>
</svg>
