<?xml version="1.0" encoding="utf-8"?>
<!-- Generator: Adobe Illustrator 28.0.0, SVG Export Plug-In . SVG Version: 6.00 Build 0)  -->
<svg version="1.1" id="Layer_1" xmlns="http://www.w3.org/2000/svg" xmlns:xlink="http://www.w3.org/1999/xlink" x="0px" y="0px"
	 viewBox="0 0 95.5 95" style="enable-background:new 0 0 95.5 95;" xml:space="preserve">
<style type="text/css">
	.st0{fill:#1B4332;}
	.st1{fill:#FFFFFF;}
</style>
<path class="st0" d="M87.8,0c3.5,0.3,6.8,3.4,7.3,6.8c0.1,0.4,0.2,0.9,0.3,1.3v78.5c-0.1,0.3-0.2,0.5-0.2,0.8
	c-0.1,1.5-0.7,2.9-1.6,4.1C91.7,94,89.1,95,86,95c-24.9,0-49.9,0-74.8,0c-1.1,0-2.3-0.1-3.4-0.2c-3.7-0.3-6.7-3.1-7.5-6.7
	c-0.1-0.5-0.2-0.9-0.3-1.4C0,60.5,0,34.3,0,8.2c0-0.3,0-0.6,0-0.8C0,2.9,3.6,0.6,7.1,0 M52.5,40.5c0-1.1,0-2.1,0-3
	c0-1.8-1-2.8-2.8-2.8c-3.5,0-6.9,0-10.4,0c-1.9,0-2.8,1-2.8,2.9c0,14.7,0,29.5,0,44.2c0,1.9,1,2.9,2.9,2.9c3.4,0,6.7,0,10.1,0
	c2,0,3-1,3-2.9c0-7.5,0-15,0-22.5c0-2.5,0.5-4.8,1.6-7.1c1.5-3.2,4.4-4.8,8-4.5c3.4,0.3,5.7,2.2,6.5,5.7c0.4,1.7,0.7,3.5,0.7,5.3
	c0.1,7.7,0,15.3,0,23c0,2.1,0.9,3,3.1,3c3.4,0,6.8,0,10.2,0c2,0,3-1,3-3c0-9,0-18-0.2-27.1c-0.1-3.6-0.6-7.2-2-10.6
	c-1.8-4.5-4.8-7.7-9.6-9.2c-3.6-1.1-7.3-1.2-11-0.6c-3.6,0.6-6.7,2.1-9.2,4.8C53.3,39.5,52.9,40,52.5,40.5L52.5,40.5z M29.7,59.7
	c0-7.3,0-14.6,0-21.8c0-2.1-1-3.1-3-3.1c-3.3,0-6.6,0-10,0c-2,0-2.9,1-2.9,3c0,14.7,0,29.3,0,44c0,2,1,3,3,3c3.2,0,6.3,0,9.5,0
	c2.5,0,3.4-1,3.4-3.4C29.7,74,29.7,66.9,29.7,59.7L29.7,59.7z M32,20.4c0-5.7-4.6-10.3-10.3-10.3c-5.6,0-10.3,4.6-10.3,10.2
	c0,5.9,4.6,10.2,10.3,10.3C27.3,30.7,31.9,26,32,20.4L32,20.4z"/>
<path class="st1" d="M52.5,40.5c0.5-0.6,0.8-1,1.2-1.4c2.4-2.8,5.5-4.3,9.2-4.8c3.7-0.6,7.4-0.5,11,0.6c4.8,1.5,7.8,4.7,9.6,9.2
	c1.4,3.4,1.9,7,2,10.6c0.1,9,0.1,18,0.2,27.1c0,2-1,3-3,3c-3.4,0-6.8,0-10.2,0c-2.2,0-3.1-0.9-3.1-3c0-7.7,0-15.3,0-23
	c0-1.8-0.3-3.6-0.7-5.3c-0.8-3.5-3.2-5.4-6.5-5.7c-3.5-0.3-6.4,1.3-8,4.5c-1.1,2.2-1.6,4.6-1.6,7.1c0,7.5,0,15,0,22.5
	c0,2-1,2.9-3,2.9c-3.4,0-6.7,0-10.1,0c-1.9,0-2.9-1-2.9-2.9c0-14.7,0-29.5,0-44.2c0-1.9,1-2.9,2.8-2.9c3.5,0,6.9,0,10.3,0
	c1.8,0,2.8,1,2.8,2.8C52.5,38.5,52.5,39.4,52.5,40.5L52.5,40.5z"/>
<path class="st1" d="M29.7,59.7c0,7.2,0,14.4,0,21.6c0,2.5-1,3.4-3.4,3.4c-3.2,0-6.3,0-9.5,0c-2,0-3-1-3-3c0-14.7,0-29.3,0-44
	c0-2,1-3,2.9-3c3.3,0,6.6,0,10,0c2,0,3,1,3,3.1C29.7,45.1,29.7,52.4,29.7,59.7L29.7,59.7z"/>
<path class="st1" d="M32,20.4c0,5.6-4.6,10.3-10.3,10.2c-5.7,0-10.3-4.4-10.3-10.3c0-5.7,4.7-10.2,10.3-10.2
	C27.3,10.1,32,14.8,32,20.4L32,20.4z"/>
</svg>
