<?xml version="1.0" encoding="UTF-8"?>
<svg id="Layer_1" data-name="Layer 1" xmlns="http://www.w3.org/2000/svg" viewBox="0 0 95.46 94.96">
  <defs>
    <style>
      .cls-1 {
        fill: #95d5b2;
      }

      .cls-1, .cls-2 {
        stroke-width: 0px;
      }

      .cls-2 {
        fill: #fff;
      }
    </style>
  </defs>
  <path class="cls-1" d="m87.84,0c3.54.32,6.83,3.36,7.35,6.81.07.45.17.88.26,1.33v78.52c-.08.26-.21.51-.23.78-.13,1.53-.72,2.87-1.63,4.08-1.89,2.52-4.53,3.44-7.56,3.44-24.94,0-49.88,0-74.82,0-1.14,0-2.29-.08-3.43-.16-3.71-.26-6.68-3.09-7.49-6.71-.11-.47-.19-.95-.28-1.42,0-26.17,0-52.35,0-78.52,0-.28,0-.56,0-.82C0,2.92,3.61.55,7.06.03m45.4,40.51c0-1.14,0-2.09,0-3.04,0-1.85-.97-2.82-2.79-2.82-3.45,0-6.9,0-10.35,0-1.87,0-2.84.99-2.84,2.88,0,14.73,0,29.46,0,44.19,0,1.91,1.02,2.92,2.93,2.93,3.36,0,6.71,0,10.07,0,2,0,2.98-.97,2.98-2.95,0-7.5,0-15.01,0-22.51,0-2.49.52-4.84,1.6-7.09,1.53-3.16,4.43-4.8,7.97-4.46,3.36.32,5.65,2.23,6.51,5.7.43,1.73.69,3.54.7,5.31.07,7.66.03,15.32.03,22.98,0,2.14.89,3.01,3.07,3.02,3.42,0,6.84,0,10.25,0,1.97,0,3.01-.99,3.01-2.96-.03-9.02-.04-18.05-.18-27.07-.06-3.63-.63-7.21-2-10.61-1.81-4.49-4.84-7.74-9.58-9.18-3.63-1.11-7.31-1.15-11.04-.58-3.63.56-6.73,2.07-9.17,4.85-.36.41-.69.84-1.16,1.41Zm-22.77,19.12c0-7.28,0-14.57,0-21.85,0-2.08-1.03-3.13-3.05-3.13-3.32,0-6.65,0-9.97,0-1.96,0-2.95,1-2.95,2.99,0,14.66,0,29.32,0,43.98,0,1.99,1.04,3.02,3.04,3.03,3.17,0,6.34,0,9.5,0,2.46,0,3.42-.97,3.42-3.44,0-7.19,0-14.38,0-21.57Zm2.26-39.22c0-5.67-4.63-10.31-10.29-10.31-5.6,0-10.29,4.59-10.26,10.24.02,5.89,4.61,10.25,10.29,10.3,5.63.05,10.25-4.63,10.26-10.24Z"/>
  <path class="cls-2" d="m52.46,40.54c.47-.57.8-1,1.16-1.41,2.43-2.78,5.53-4.29,9.17-4.85,3.73-.57,7.41-.53,11.04.58,4.75,1.45,7.77,4.69,9.58,9.18,1.37,3.4,1.95,6.99,2,10.61.14,9.02.14,18.04.18,27.07,0,1.97-1.04,2.96-3.01,2.96-3.42,0-6.84,0-10.25,0-2.17,0-3.07-.87-3.07-3.02,0-7.66.04-15.32-.03-22.98-.02-1.78-.28-3.59-.7-5.31-.85-3.47-3.15-5.38-6.51-5.7-3.54-.34-6.44,1.29-7.97,4.46-1.08,2.24-1.6,4.6-1.6,7.09,0,7.5,0,15.01,0,22.51,0,1.98-.98,2.95-2.98,2.95-3.36,0-6.71,0-10.07,0-1.91,0-2.93-1.02-2.93-2.93,0-14.73,0-29.46,0-44.19,0-1.9.98-2.88,2.84-2.88,3.45,0,6.9,0,10.35,0,1.82,0,2.78.98,2.79,2.82,0,.95,0,1.9,0,3.04Z"/>
  <path class="cls-2" d="m29.69,59.66c0,7.19,0,14.38,0,21.57,0,2.47-.97,3.44-3.42,3.44-3.17,0-6.34,0-9.5,0-2,0-3.04-1.04-3.04-3.03,0-14.66,0-29.32,0-43.98,0-1.98.99-2.98,2.95-2.99,3.32,0,6.65,0,9.97,0,2.02,0,3.04,1.05,3.05,3.13,0,7.28,0,14.57,0,21.85Z"/>
  <path class="cls-2" d="m31.95,20.44c0,5.61-4.63,10.29-10.26,10.24-5.68-.05-10.27-4.42-10.29-10.3-.02-5.66,4.66-10.24,10.26-10.24,5.66,0,10.29,4.64,10.29,10.31Z"/>
</svg>