<?xml version="1.0" encoding="UTF-8"?>
<svg id="Layer_2" data-name="Layer 2" xmlns="http://www.w3.org/2000/svg" viewBox="0 0 416.68 58.07">
  <defs>
    <style>
      .cls-1 {
        fill: #51b688;
      }

      .cls-1, .cls-2 {
        stroke-width: 0px;
      }

      .cls-2 {
        fill: #50b588;
      }
    </style>
  </defs>
  <g id="aiden">
    <g>
      <g>
        <path class="cls-1" d="m36.48,1h-13.5L1.46,56.3h14.43l3.37-9.67h20.52l3.33,9.67h14.66L36.48,1Zm-13.35,34.55l6.47-18.54,6.37,18.54h-12.84Z"/>
        <path class="cls-2" d="m59.23,57.3h-16.83l-3.33-9.67h-19.1l-3.37,9.67H0L22.3,0h14.87l22.06,57.3Zm-15.4-2h12.49L35.8,2h-12.13L2.92,55.3h12.26l3.37-9.67h21.94l3.33,9.67Zm-6.45-18.75h-15.65l7.89-22.6,7.76,22.6Zm-12.83-2h10.03l-4.98-14.48-5.05,14.48Z"/>
      </g>
      <g>
        <path class="cls-1" d="m65.44,21.42c-1.71,0-3.12-.59-4.22-1.76-1.11-1.17-1.66-2.59-1.66-4.26s.55-3.07,1.66-4.22c1.11-1.15,2.52-1.73,4.22-1.73s3.05.58,4.16,1.73c1.11,1.15,1.66,2.56,1.66,4.22s-.55,3.08-1.66,4.26c-1.11,1.17-2.5,1.76-4.16,1.76Zm-5.7,34.88v-31.3h11.2v31.3h-11.2Z"/>
        <path class="cls-2" d="m71.94,57.3h-13.2V24h13.2v33.3Zm-11.2-2h9.2v-29.3h-9.2v29.3Zm4.7-32.88c-1.99,0-3.65-.7-4.95-2.07-1.29-1.36-1.94-3.02-1.94-4.94s.65-3.58,1.94-4.92c1.3-1.35,2.96-2.03,4.94-2.03s3.58.68,4.88,2.03c1.29,1.34,1.94,2.99,1.94,4.92s-.65,3.58-1.94,4.94c-1.3,1.38-2.94,2.07-4.89,2.07Zm0-11.97c-1.44,0-2.58.46-3.5,1.42-.93.97-1.38,2.12-1.38,3.53s.45,2.58,1.39,3.57c.92.97,2.06,1.45,3.5,1.45s2.51-.47,3.43-1.45c.94-.99,1.39-2.16,1.39-3.57s-.45-2.56-1.38-3.53c-.92-.96-2.05-1.42-3.44-1.42Z"/>
      </g>
      <g>
        <path class="cls-1" d="m96.79,9.64v16.81c-.61-.4-1.27-.74-1.98-1.03-1.71-.71-3.56-1.06-5.57-1.06-3.03,0-5.7.7-8,2.08-2.3,1.39-4.11,3.32-5.41,5.79-1.3,2.48-1.95,5.27-1.95,8.39s.65,5.96,1.95,8.41c1.3,2.46,3.12,4.39,5.44,5.8,2.33,1.4,4.98,2.11,7.97,2.11,2.01,0,3.86-.4,5.57-1.19.78-.36,1.5-.78,2.17-1.26v1.81h11.01V9.64h-11.2Zm-.19,34.3c-.51.94-1.23,1.69-2.14,2.25-.92.55-1.98.83-3.17.83s-2.2-.28-3.14-.83c-.94-.56-1.67-1.32-2.21-2.28-.53-.96-.8-2.05-.8-3.29s.28-2.27.84-3.23c.55-.96,1.29-1.72,2.2-2.28.92-.55,1.98-.83,3.17-.83s2.25.28,3.17.83c.92.56,1.62,1.31,2.11,2.24.49.94.74,2.03.74,3.27s-.26,2.39-.77,3.32Z"/>
        <path class="cls-2" d="m89.24,57.94c-3.14,0-6-.76-8.48-2.25-2.48-1.51-4.44-3.59-5.81-6.19-1.37-2.58-2.07-5.57-2.07-8.88s.69-6.24,2.06-8.85c1.38-2.62,3.32-4.7,5.78-6.18,2.46-1.48,5.33-2.22,8.52-2.22,2.13,0,4.14.38,5.95,1.14.2.08.4.17.6.26V8.64h13.2v48.66h-13.01v-1.02c-.25.13-.5.26-.75.37-1.84.85-3.86,1.28-5.99,1.28Zm0-32.58c-2.82,0-5.34.65-7.49,1.94-2.14,1.29-3.83,3.11-5.04,5.4-1.22,2.32-1.83,4.99-1.83,7.92s.62,5.65,1.83,7.94c1.2,2.28,2.91,4.1,5.08,5.41,2.17,1.3,4.68,1.96,7.45,1.96,1.87,0,3.55-.36,5.15-1.1.71-.33,1.39-.72,2.01-1.16l1.58-1.14v2.76h9.01V10.64h-9.2v17.66l-1.55-1.02c-.54-.35-1.15-.67-1.81-.94-1.6-.66-3.3-.99-5.19-.99Zm2.05,22.66c-1.32,0-2.55-.33-3.65-.97-1.08-.65-1.95-1.54-2.58-2.65-.62-1.12-.93-2.39-.93-3.78s.33-2.62.98-3.73c.62-1.09,1.48-1.97,2.54-2.63,1.09-.65,2.33-.98,3.69-.98s2.6.33,3.68.97c1.07.65,1.9,1.54,2.48,2.63.57,1.09.86,2.34.86,3.74s-.3,2.72-.89,3.8c-.59,1.08-1.43,1.97-2.49,2.62-1.09.65-2.33.98-3.69.98Zm.06-12.74c-1,0-1.89.23-2.66.69-.76.47-1.39,1.12-1.85,1.92-.48.82-.71,1.71-.71,2.73s.22,1.98.68,2.81c.46.81,1.06,1.44,1.85,1.9.78.46,1.67.69,2.63.69s1.89-.23,2.66-.69c.75-.46,1.35-1.09,1.77-1.87h0c.43-.79.65-1.74.65-2.84s-.21-2.01-.63-2.81c-.41-.78-.98-1.38-1.74-1.85-.77-.46-1.64-.68-2.65-.68Z"/>
      </g>
      <g>
        <path class="cls-1" d="m142.01,31.82c-1.39-2.37-3.31-4.23-5.76-5.57-2.46-1.34-5.26-2.02-8.42-2.02s-6.16.72-8.77,2.15c-2.6,1.43-4.64,3.37-6.11,5.82-1.47,2.46-2.21,5.28-2.21,8.48s.76,5.98,2.28,8.45c1.51,2.47,3.61,4.42,6.3,5.82,2.69,1.41,5.8,2.12,9.34,2.12,2.73,0,5.2-.46,7.4-1.38,2.19-.92,4.1-2.27,5.72-4.06l-5.88-5.77c-.94,1.07-2.01,1.85-3.2,2.34-1.2.49-2.54.74-4.04.74-1.62,0-2.98-.31-4.09-.93s-1.96-1.55-2.56-2.78c-.15-.31-.28-.64-.39-.99l21.96-.1c.17-.86.29-1.61.38-2.28.09-.66.13-1.28.13-1.88,0-3.07-.7-5.79-2.08-8.16Zm-20.4,5.25c.09-.31.2-.61.33-.9.56-1.26,1.36-2.22,2.4-2.88,1.05-.66,2.25-.99,3.62-.99s2.5.29,3.39.86c.9.58,1.58,1.44,2.05,2.59.16.39.29.8.4,1.25l-12.19.07Z"/>
        <path class="cls-2" d="m128.66,58.07c-3.68,0-6.98-.75-9.8-2.23-2.83-1.47-5.08-3.55-6.69-6.18-1.61-2.62-2.43-5.64-2.43-8.97s.79-6.38,2.35-8.99c1.55-2.59,3.74-4.67,6.49-6.18,2.75-1.51,5.87-2.27,9.25-2.27s6.29.72,8.9,2.14c2.6,1.42,4.67,3.42,6.14,5.94h0c1.47,2.53,2.22,5.44,2.22,8.67,0,.67-.05,1.33-.14,2.02-.1.77-.23,1.53-.39,2.34l-.16.8-7.78.04,6.54,6.42-.64.71c-1.7,1.88-3.75,3.33-6.07,4.31-2.31.97-4.93,1.46-7.79,1.46Zm-.83-32.84c-3.05,0-5.83.68-8.29,2.03-2.43,1.34-4.36,3.18-5.73,5.46-1.37,2.29-2.07,4.98-2.07,7.97s.72,5.63,2.13,7.93c1.42,2.32,3.41,4.15,5.91,5.46,2.54,1.33,5.53,2.01,8.88,2.01,2.59,0,4.95-.44,7.01-1.3,1.76-.74,3.34-1.79,4.7-3.12l-4.46-4.37c-.86.8-1.81,1.42-2.84,1.85-1.33.54-2.81.82-4.42.82-1.78,0-3.32-.36-4.58-1.06-1.28-.72-2.28-1.8-2.97-3.21-.17-.35-.32-.73-.45-1.13l-.41-1.29,22.49-.1c.08-.48.16-.95.22-1.42.08-.6.12-1.17.12-1.75,0-2.86-.65-5.44-1.94-7.66-1.29-2.21-3.1-3.95-5.38-5.2-2.31-1.26-4.98-1.9-7.94-1.9Zm-4.69,20c.49.83,1.12,1.46,1.91,1.9.95.53,2.17.8,3.6.8s2.56-.22,3.66-.67c1.04-.43,1.99-1.13,2.83-2.07l.02-.02-12.02.05Zm-2.87-7.16l.38-1.29c.1-.35.23-.7.38-1.03.64-1.43,1.57-2.55,2.78-3.32,1.21-.76,2.61-1.15,4.16-1.15s2.87.34,3.93,1.02c1.07.69,1.89,1.72,2.44,3.05.18.43.32.88.45,1.39l.3,1.23-14.8.09Zm7.69-4.78c-1.18,0-2.19.27-3.09.84-.73.46-1.31,1.1-1.76,1.92l9.32-.05c-.39-.9-.92-1.56-1.62-2.01-.73-.46-1.68-.7-2.85-.7Z"/>
      </g>
      <g>
        <path class="cls-1" d="m178.14,36.01v20.29h-11.2v-17.73c0-1.41-.42-2.52-1.25-3.33-.83-.81-1.91-1.22-3.23-1.22-.9,0-1.7.19-2.4.55-.71.36-1.25.9-1.64,1.6-.38.7-.57,1.52-.57,2.46v17.67h-11.2v-31.3h11.2v2.04c.58-.46,1.22-.86,1.92-1.21,1.96-.98,4.16-1.47,6.59-1.47,2.26,0,4.28.52,6.05,1.57,1.77,1.05,3.17,2.44,4.19,4.19,1.02,1.75,1.54,3.71,1.54,5.89Z"/>
        <path class="cls-2" d="m179.14,57.3h-13.2v-18.73c0-1.14-.31-1.99-.95-2.61-.65-.63-1.47-.94-2.53-.94-.72,0-1.38.15-1.94.44-.52.27-.92.66-1.22,1.2-.29.54-.44,1.21-.44,1.97v18.67h-13.2V24h13.2v1.18c.15-.09.31-.17.47-.25,2.09-1.05,4.46-1.58,7.04-1.58,2.44,0,4.65.58,6.56,1.71,1.92,1.14,3.45,2.67,4.54,4.55,1.11,1.91,1.68,4.06,1.68,6.39v21.29Zm-11.2-2h9.2v-19.29c0-1.98-.47-3.79-1.4-5.39-.92-1.58-2.21-2.87-3.84-3.83-1.6-.95-3.46-1.43-5.54-1.43-2.27,0-4.33.46-6.14,1.36-.66.33-1.23.69-1.75,1.1l-1.62,1.29v-3.11h-9.2v29.3h9.2v-16.67c0-1.1.23-2.09.69-2.94.5-.9,1.19-1.57,2.07-2.01.85-.44,1.81-.66,2.85-.66,1.58,0,2.91.51,3.93,1.5,1.03,1.01,1.55,2.37,1.55,4.05v16.73Z"/>
      </g>
    </g>
  </g>
  <g id="wotton">
    <g>
      <polygon class="cls-1" points="267.33 1 249.71 56.3 238.4 56.3 228.8 23.48 219.21 56.3 207.82 56.3 190.35 1 204.23 1 213.81 33.41 223.26 1 234.42 1 243.91 33.34 253.53 1 267.33 1"/>
      <path class="cls-2" d="m250.44,57.3h-12.79l-8.85-30.26-8.84,30.26h-12.87L188.99,0h15.99l8.83,29.86L222.51,0h12.66l8.75,29.81L252.79,0h15.91l-18.26,57.3Zm-11.29-2h9.83l16.98-53.3h-11.69l-10.37,34.87-10.23-34.87h-9.66l-10.19,34.96-10.33-34.96h-11.77l16.84,53.3h9.91l10.34-35.38,10.35,35.38Z"/>
    </g>
    <g>
      <path class="cls-1" d="m279.17,57.07c-3.33,0-6.32-.73-8.96-2.18-2.65-1.45-4.73-3.42-6.24-5.92-1.51-2.5-2.27-5.28-2.27-8.35s.76-5.96,2.27-8.42c1.51-2.45,3.59-4.39,6.24-5.82,2.64-1.43,5.61-2.14,8.9-2.14s6.43.71,9.06,2.14c2.62,1.43,4.69,3.37,6.21,5.82,1.51,2.46,2.27,5.26,2.27,8.42s-.75,5.86-2.24,8.35c-1.49,2.5-3.56,4.47-6.21,5.92s-5.65,2.18-9.02,2.18Zm-.06-9.98c1.24,0,2.33-.28,3.26-.83.94-.55,1.66-1.31,2.18-2.27.51-.96.77-2.08.77-3.36s-.27-2.4-.8-3.36c-.53-.96-1.26-1.71-2.18-2.24-.92-.53-2-.8-3.23-.8-1.15,0-2.19.28-3.1.83-.92.56-1.64,1.31-2.18,2.27-.53.96-.8,2.08-.8,3.36s.27,2.34.8,3.3c.53.96,1.26,1.72,2.18,2.27.92.55,1.95.83,3.1.83Z"/>
      <path class="cls-2" d="m279.17,58.07c-3.48,0-6.66-.77-9.44-2.3-2.79-1.53-5.02-3.64-6.62-6.28-1.6-2.64-2.42-5.63-2.42-8.87s.81-6.34,2.42-8.94c1.6-2.59,3.83-4.67,6.62-6.18,2.78-1.5,5.93-2.26,9.37-2.26s6.77.76,9.54,2.27c2.76,1.51,4.98,3.58,6.58,6.18,1.61,2.61,2.42,5.61,2.42,8.94s-.8,6.22-2.38,8.87c-1.58,2.64-3.8,4.75-6.59,6.28-2.78,1.53-5.98,2.3-9.5,2.3Zm-.06-32.83c-3.1,0-5.94.68-8.42,2.02-2.48,1.34-4.45,3.18-5.87,5.47-1.41,2.28-2.12,4.94-2.12,7.89s.72,5.51,2.13,7.83c1.42,2.33,3.39,4.2,5.87,5.56,2.49,1.36,5.34,2.05,8.48,2.05s6.06-.69,8.54-2.05c2.47-1.36,4.43-3.23,5.83-5.56,1.39-2.33,2.1-4.96,2.1-7.84s-.71-5.61-2.12-7.89c-1.42-2.29-3.38-4.13-5.83-5.47-2.46-1.34-5.35-2.02-8.58-2.02Zm0,22.85c-1.33,0-2.55-.33-3.62-.98-1.06-.64-1.92-1.53-2.53-2.64-.61-1.11-.93-2.38-.93-3.78s.31-2.74.93-3.85c.61-1.11,1.47-2,2.53-2.64,1.07-.65,2.29-.98,3.62-.98,1.41,0,2.67.31,3.73.94,1.07.62,1.93,1.5,2.55,2.62.61,1.11.93,2.4.93,3.85s-.3,2.73-.88,3.83c-.6,1.12-1.46,2.02-2.55,2.66-1.09.64-2.36.97-3.77.97Zm0-12.86c-.97,0-1.82.22-2.59.69-.77.47-1.37,1.09-1.82,1.9-.45.8-.67,1.77-.67,2.87s.22,1.99.67,2.81c.45.81,1.05,1.43,1.82,1.9.76.46,1.61.69,2.59.69,1.06,0,1.97-.23,2.76-.69.78-.46,1.37-1.08,1.8-1.88.43-.81.65-1.78.65-2.89s-.23-2.07-.67-2.87c-.45-.81-1.04-1.42-1.8-1.86-.76-.44-1.68-.66-2.73-.66Z"/>
    </g>
    <g>
      <polygon class="cls-1" points="346.37 25 346.37 34.28 339.46 34.28 339.46 56.3 328.26 56.3 328.26 34.28 314.82 34.28 314.82 56.3 303.62 56.3 303.62 34.28 296.77 34.28 296.77 25 303.62 25 303.62 12.07 314.82 12.07 314.82 25 328.26 25 328.26 12.07 339.46 12.07 339.46 25 346.37 25"/>
      <path class="cls-2" d="m340.46,57.3h-13.2v-22.02h-11.44v22.02h-13.2v-22.02h-6.85v-11.28h6.85v-12.93h13.2v12.93h11.44v-12.93h13.2v12.93h6.91v11.28h-6.91v22.02Zm-11.2-2h9.2v-22.02h6.91v-7.28h-6.91v-12.93h-9.2v12.93h-15.44v-12.93h-9.2v12.93h-6.85v7.28h6.85v22.02h9.2v-22.02h15.44v22.02Z"/>
    </g>
    <g>
      <path class="cls-1" d="m364.04,57.07c-3.33,0-6.32-.73-8.96-2.18-2.65-1.45-4.73-3.42-6.24-5.92-1.51-2.5-2.27-5.28-2.27-8.35s.76-5.96,2.27-8.42c1.51-2.45,3.59-4.39,6.24-5.82,2.64-1.43,5.61-2.14,8.9-2.14s6.43.71,9.06,2.14c2.62,1.43,4.69,3.37,6.21,5.82,1.51,2.46,2.27,5.26,2.27,8.42s-.75,5.86-2.24,8.35c-1.49,2.5-3.56,4.47-6.21,5.92s-5.65,2.18-9.02,2.18Zm-.06-9.98c1.24,0,2.33-.28,3.26-.83.94-.55,1.66-1.31,2.18-2.27.51-.96.77-2.08.77-3.36s-.27-2.4-.8-3.36c-.53-.96-1.26-1.71-2.18-2.24-.92-.53-2-.8-3.23-.8-1.15,0-2.19.28-3.1.83-.92.56-1.64,1.31-2.18,2.27-.53.96-.8,2.08-.8,3.36s.27,2.34.8,3.3c.53.96,1.26,1.72,2.18,2.27.92.55,1.95.83,3.1.83Z"/>
      <path class="cls-2" d="m364.04,58.07c-3.48,0-6.66-.77-9.44-2.3-2.79-1.53-5.02-3.64-6.62-6.28-1.6-2.64-2.42-5.63-2.42-8.87s.81-6.34,2.42-8.94c1.6-2.59,3.83-4.67,6.62-6.18,2.78-1.5,5.93-2.26,9.37-2.26s6.77.76,9.54,2.27c2.76,1.51,4.98,3.58,6.58,6.18,1.61,2.61,2.42,5.61,2.42,8.94s-.8,6.22-2.38,8.87c-1.58,2.64-3.8,4.75-6.59,6.28-2.78,1.53-5.98,2.3-9.5,2.3Zm-.06-32.83c-3.1,0-5.94.68-8.42,2.02-2.48,1.34-4.45,3.18-5.87,5.47-1.41,2.28-2.12,4.94-2.12,7.89s.72,5.51,2.13,7.83c1.42,2.33,3.39,4.2,5.87,5.56,2.49,1.36,5.34,2.05,8.48,2.05s6.06-.69,8.54-2.05c2.47-1.36,4.43-3.23,5.83-5.56,1.39-2.33,2.1-4.96,2.1-7.84s-.71-5.61-2.12-7.89c-1.42-2.29-3.38-4.13-5.83-5.47-2.46-1.34-5.35-2.02-8.58-2.02Zm0,22.85c-1.33,0-2.55-.33-3.62-.98-1.06-.64-1.92-1.53-2.53-2.64-.61-1.11-.93-2.38-.93-3.78s.31-2.74.93-3.85c.61-1.11,1.47-2,2.53-2.64,1.07-.65,2.29-.98,3.62-.98,1.41,0,2.67.31,3.73.94,1.07.62,1.93,1.5,2.55,2.62.61,1.11.93,2.4.93,3.85s-.3,2.73-.88,3.83c-.6,1.12-1.46,2.02-2.55,2.66-1.09.64-2.36.97-3.77.97Zm0-12.86c-.97,0-1.82.22-2.59.69-.77.47-1.37,1.09-1.82,1.9-.45.8-.67,1.77-.67,2.87s.22,1.99.67,2.81c.45.81,1.05,1.43,1.82,1.9.76.46,1.61.69,2.59.69,1.06,0,1.97-.23,2.76-.69.78-.46,1.37-1.08,1.8-1.88.43-.81.65-1.78.65-2.89s-.23-2.07-.67-2.87c-.45-.81-1.04-1.42-1.8-1.86-.76-.44-1.68-.66-2.73-.66Z"/>
    </g>
    <g>
      <path class="cls-1" d="m415.68,36.01v20.29h-11.2v-17.73c0-1.41-.42-2.52-1.25-3.33-.83-.81-1.91-1.22-3.23-1.22-.9,0-1.69.19-2.4.55-.7.36-1.25.9-1.63,1.6-.39.7-.58,1.52-.58,2.46v17.67h-11.2v-31.3h11.2v2.05c.58-.47,1.22-.87,1.92-1.22,1.96-.98,4.16-1.47,6.59-1.47,2.27,0,4.28.52,6.05,1.57,1.77,1.05,3.17,2.44,4.2,4.19,1.02,1.75,1.53,3.71,1.53,5.89Z"/>
      <path class="cls-2" d="m416.68,57.3h-13.2v-18.73c0-1.14-.31-1.99-.95-2.61-.65-.63-1.47-.94-2.53-.94-.72,0-1.36.14-1.95.44-.51.26-.92.66-1.2,1.18-.31.56-.46,1.2-.46,1.98v18.67h-13.2V24h13.2v1.18c.15-.08.31-.17.47-.25,2.09-1.05,4.46-1.58,7.04-1.58,2.44,0,4.65.58,6.56,1.71,1.91,1.13,3.44,2.66,4.55,4.54,1.11,1.9,1.67,4.05,1.67,6.4v21.29Zm-11.2-2h9.2v-19.29c0-2.02-.46-3.78-1.39-5.39-.94-1.6-2.2-2.86-3.85-3.83-1.62-.96-3.43-1.43-5.54-1.43-2.26,0-4.33.46-6.14,1.36-.66.33-1.23.69-1.74,1.1l-1.63,1.32v-3.15h-9.2v29.3h9.2v-16.67c0-1.11.24-2.11.71-2.95.47-.87,1.16-1.55,2.04-2,.87-.44,1.83-.66,2.86-.66,1.58,0,2.9.51,3.93,1.5,1.03,1.01,1.55,2.37,1.55,4.05v16.73Z"/>
    </g>
  </g>
</svg>