<?xml version="1.0" encoding="utf-8"?>
<!-- Generator: Adobe Illustrator 28.0.0, SVG Export Plug-In . SVG Version: 6.00 Build 0)  -->
<svg version="1.1" id="Layer_1" xmlns="http://www.w3.org/2000/svg" xmlns:xlink="http://www.w3.org/1999/xlink" x="0px" y="0px"
	 viewBox="0 0 424.4 85.2" style="enable-background:new 0 0 424.4 85.2;" xml:space="preserve">
<style type="text/css">
	.st0{fill:#FFFFFF;}
</style>
<g>
	<path class="st0" d="M26.3,10.3L4.6,65.4h12.7l3.7-9.9h21.6l3.6,9.9h13L37.5,10.3H26.3z M24.6,45.5l7.2-19.5l7,19.5H24.6z"/>
	<rect x="62.8" y="34.3" class="st0" width="9.9" height="31.1"/>
	<path class="st0" d="M67.7,19.2c-1.5,0-2.8,0.5-3.8,1.5c-1,1-1.5,2.3-1.5,3.8c0,1.5,0.5,2.8,1.5,3.8s2.3,1.6,3.8,1.6
		c1.6,0,2.8-0.5,3.8-1.6s1.4-2.3,1.4-3.8c0-1.5-0.5-2.8-1.4-3.8C70.6,19.7,69.3,19.2,67.7,19.2z"/>
	<path class="st0" d="M98.9,36.2c-0.7-0.5-1.5-1-2.3-1.4c-1.8-0.8-3.7-1.2-5.8-1.2c-2.9,0-5.6,0.7-7.9,2.1s-4.1,3.3-5.4,5.8
		c-1.3,2.4-1.9,5.2-1.9,8.3c0,3.1,0.6,5.9,1.9,8.3c1.3,2.4,3.1,4.4,5.3,5.8c2.3,1.4,4.9,2.1,7.9,2.1c2.1,0,4-0.4,5.8-1.3
		c0.9-0.5,1.8-1,2.5-1.6v2.3h9.7V18.9h-9.9V36.2z M96.2,56.2c-1,0.6-2.2,0.9-3.6,0.9c-1.3,0-2.5-0.3-3.6-0.9
		c-1.1-0.6-1.9-1.5-2.5-2.6c-0.6-1.1-0.9-2.4-0.9-3.8s0.3-2.7,0.9-3.7c0.6-1.1,1.4-2,2.5-2.6c1-0.6,2.2-1,3.6-1
		c1.4,0,2.6,0.3,3.6,0.9c1,0.6,1.8,1.5,2.4,2.6s0.9,2.3,0.9,3.7c0,1.5-0.3,2.7-0.9,3.8C98,54.7,97.2,55.6,96.2,56.2z"/>
	<path class="st0" d="M136.5,35.5c-2.3-1.3-5.1-2-8.2-2c-3.2,0-6,0.7-8.5,2.1c-2.5,1.4-4.5,3.3-6,5.8c-1.5,2.5-2.2,5.2-2.2,8.3
		c0,3.2,0.7,6,2.2,8.4c1.5,2.5,3.5,4.4,6.1,5.8c2.6,1.4,5.6,2.1,9,2.1c2.6,0,5.1-0.4,7.2-1.3c2.2-0.9,4-2.2,5.6-4.1l-5.4-5.4
		c-0.9,1.1-2,1.9-3.3,2.4c-1.2,0.5-2.6,0.8-4.1,0.8c-1.7,0-3.1-0.4-4.3-1.1c-1.2-0.7-2.2-1.7-2.8-3c-0.2-0.4-0.4-0.8-0.5-1.3
		l22.2-0.1c0.2-0.8,0.4-1.5,0.4-2.1c0.1-0.6,0.1-1.2,0.1-1.8c0-3-0.7-5.7-2-8.1C140.7,38.7,138.9,36.9,136.5,35.5z M124.4,42.1
		c1.1-0.7,2.5-1.1,4-1.1c1.4,0,2.6,0.3,3.6,1c1,0.6,1.8,1.5,2.3,2.7c0.2,0.5,0.4,1,0.5,1.5l-13.5,0.1c0.1-0.4,0.3-0.8,0.5-1.2
		C122.4,43.9,123.3,42.9,124.4,42.1z"/>
	<path class="st0" d="M171.5,35.2c-1.8-1.1-3.8-1.6-6.1-1.6c-2.4,0-4.5,0.5-6.4,1.5c-0.9,0.5-1.6,1-2.3,1.6v-2.5h-9.9v31.1h9.9V47.6
		c0-1.1,0.2-2,0.7-2.8c0.5-0.8,1.1-1.4,1.9-1.9c0.8-0.4,1.7-0.7,2.8-0.7c1.5,0,2.8,0.5,3.8,1.5c1,1,1.5,2.3,1.5,3.9v17.7h9.9V45.5
		c0-2.1-0.5-4.1-1.5-5.9C174.7,37.7,173.3,36.3,171.5,35.2z"/>
	<polygon class="st0" points="256.8,10.3 246.3,44.8 236,10.3 226.3,10.3 216.1,44.7 205.6,10.3 193.3,10.3 211.1,65.4 220.7,65.4 
		231.1,30.7 241.6,65.4 251.2,65.4 269,10.3 	"/>
	<path class="st0" d="M290.4,35.7c-2.6-1.4-5.5-2.1-8.7-2.1c-3.3,0-6.2,0.7-8.8,2.1c-2.6,1.4-4.6,3.4-6,5.8
		c-1.5,2.4-2.2,5.2-2.2,8.2c0,3.1,0.7,5.8,2.2,8.3c1.5,2.5,3.5,4.4,6.1,5.9c2.6,1.5,5.5,2.2,8.7,2.2c3.2,0,6.1-0.7,8.7-2.2
		s4.6-3.4,6.1-5.9c1.5-2.5,2.2-5.2,2.2-8.4c0-3-0.7-5.8-2.2-8.2C295,39,293,37.1,290.4,35.7z M287.8,53.6c-0.6,1.1-1.4,2-2.5,2.6
		c-1.1,0.6-2.3,0.9-3.6,0.9c-1.4,0-2.6-0.3-3.6-0.9c-1.1-0.6-1.9-1.5-2.5-2.6c-0.6-1.1-0.9-2.4-0.9-3.9c0-1.4,0.3-2.6,0.9-3.7
		c0.6-1.1,1.4-2,2.5-2.6c1.1-0.6,2.3-0.9,3.6-0.9c1.4,0,2.6,0.3,3.6,0.9c1,0.6,1.9,1.5,2.5,2.6c0.6,1.1,0.9,2.3,0.9,3.7
		C288.7,51.2,288.4,52.5,287.8,53.6z"/>
	<polygon class="st0" points="339.5,21.4 329.6,21.4 329.6,34.3 322.9,34.3 322.7,34.3 315.9,34.3 315.9,21.4 306,21.4 306,34.3 
		299.1,34.3 299.1,42.6 306,42.6 306,65.4 315.9,65.4 315.9,42.6 322.7,42.6 322.9,42.6 329.6,42.6 329.6,65.4 339.5,65.4 
		339.5,42.6 346.5,42.6 346.5,34.3 339.5,34.3 	"/>
	<path class="st0" d="M372.6,35.7c-2.6-1.4-5.5-2.1-8.7-2.1c-3.3,0-6.2,0.7-8.8,2.1c-2.6,1.4-4.6,3.4-6,5.8
		c-1.5,2.4-2.2,5.2-2.2,8.2c0,3.1,0.7,5.8,2.2,8.3c1.5,2.5,3.5,4.4,6.1,5.9c2.6,1.5,5.5,2.2,8.7,2.2c3.2,0,6.1-0.7,8.7-2.2
		s4.6-3.4,6.1-5.9c1.5-2.5,2.2-5.2,2.2-8.4c0-3-0.7-5.8-2.2-8.2C377.2,39,375.1,37.1,372.6,35.7z M370,53.6c-0.6,1.1-1.4,2-2.5,2.6
		c-1.1,0.6-2.3,0.9-3.6,0.9c-1.4,0-2.6-0.3-3.6-0.9c-1.1-0.6-1.9-1.5-2.5-2.6c-0.6-1.1-0.9-2.4-0.9-3.9c0-1.4,0.3-2.6,0.9-3.7
		c0.6-1.1,1.4-2,2.5-2.6c1.1-0.6,2.3-0.9,3.6-0.9c1.4,0,2.6,0.3,3.6,0.9c1,0.6,1.9,1.5,2.5,2.6c0.6,1.1,0.9,2.3,0.9,3.7
		C370.9,51.2,370.6,52.5,370,53.6z"/>
	<path class="st0" d="M412.7,39.5c-1-1.8-2.4-3.3-4.2-4.3s-3.8-1.6-6.1-1.6c-2.4,0-4.5,0.5-6.4,1.5c-0.9,0.5-1.6,1-2.3,1.6v-2.5
		h-9.9v31.1h9.9V47.6c0-1.1,0.2-2,0.7-2.8c0.5-0.8,1.1-1.4,1.9-1.9c0.8-0.4,1.7-0.7,2.8-0.7c1.5,0,2.8,0.5,3.8,1.5
		c1,1,1.5,2.3,1.5,3.9v17.7h9.9V45.5C414.3,43.3,413.7,41.4,412.7,39.5z"/>
</g>
</svg>
